<svg id="Layer_1" data-name="Layer 1" xmlns="http://www.w3.org/2000/svg" viewBox="0 0 1480 800"><title>firewall</title><path d="M478.6,293.7H398.3V269a4.2,4.2,0,0,1,4.1-4.1h76.2Z" style="fill:#707070"/><rect x="492.9" y="264.9" width="80.3" height="28.8" style="fill:#707070"/><path d="M662.9,264.9H587.4v28.8H667V269A4.2,4.2,0,0,0,662.9,264.9Z" style="fill:#707070"/><rect x="398.3" y="304.6" width="33.5" height="28.8" style="fill:#707070"/><rect x="446.1" y="304.6" width="80.3" height="28.8" style="fill:#707070"/><rect x="540.6" y="304.6" width="80.3" height="28.8" style="fill:#707070"/><rect x="636.2" y="304.6" width="30.8" height="28.8" style="fill:#707070"/><rect x="398.3" y="344.6" width="80.3" height="28.8" style="fill:#707070"/><rect x="492.9" y="344.6" width="80.3" height="28.8" style="fill:#707070"/><rect x="587.4" y="344.6" width="79.6" height="28.8" style="fill:#707070"/><path d="M398.3,448.6a4.1,4.1,0,0,0,4.1,4h76.2V423.8H398.3Z" style="fill:#707070"/><rect x="492.9" y="423.8" width="33.5" height="28.8" style="fill:#707070"/><rect x="398.3" y="384.2" width="33.5" height="28.8" style="fill:#707070"/><rect x="446.1" y="384.2" width="80.3" height="28.8" style="fill:#707070"/><path d="M667,384.2v64a3.8,3.8,0,0,1-3.7,4.4H543V384.2Z" style="fill:#707070"/><path d="M478.6,96.7H398.3V72a4.2,4.2,0,0,1,4.1-4.1h76.2Z" style="fill:#707070"/><rect x="492.9" y="67.9" width="80.3" height="28.8" style="fill:#707070"/><path d="M662.9,67.9H587.4V96.7H667V72A4.2,4.2,0,0,0,662.9,67.9Z" style="fill:#707070"/><rect x="398.3" y="107.6" width="33.5" height="28.8" style="fill:#707070"/><rect x="446.1" y="107.6" width="80.3" height="28.8" style="fill:#707070"/><rect x="540.6" y="107.6" width="80.3" height="28.8" style="fill:#707070"/><rect x="636.2" y="107.6" width="30.8" height="28.8" style="fill:#707070"/><rect x="398.3" y="147.6" width="80.3" height="28.8" style="fill:#707070"/><rect x="492.9" y="147.6" width="80.3" height="28.8" style="fill:#707070"/><rect x="587.4" y="147.6" width="79.6" height="28.8" style="fill:#707070"/><path d="M398.3,251.6a4.1,4.1,0,0,0,4.1,4h76.2V226.8H398.3Z" style="fill:#707070"/><rect x="492.9" y="226.8" width="33.5" height="28.8" style="fill:#707070"/><rect x="398.3" y="187.2" width="33.5" height="28.8" style="fill:#707070"/><rect x="446.1" y="187.2" width="80.3" height="28.8" style="fill:#707070"/><path d="M667,187.2v64a3.8,3.8,0,0,1-3.7,4.4H543V187.2Z" style="fill:#707070"/><path d="M478.6,490.7H398.3V466a4.2,4.2,0,0,1,4.1-4.1h76.2Z" style="fill:#707070"/><rect x="492.9" y="461.9" width="80.3" height="28.8" style="fill:#707070"/><path d="M662.9,461.9H587.4v28.8H667V466A4.2,4.2,0,0,0,662.9,461.9Z" style="fill:#707070"/><rect x="398.3" y="501.6" width="33.5" height="28.8" style="fill:#707070"/><rect x="446.1" y="501.6" width="80.3" height="28.8" style="fill:#707070"/><rect x="540.6" y="501.6" width="80.3" height="28.8" style="fill:#707070"/><rect x="636.2" y="501.6" width="30.8" height="28.8" style="fill:#707070"/><rect x="398.3" y="541.6" width="80.3" height="28.8" style="fill:#707070"/><rect x="492.9" y="541.6" width="80.3" height="28.8" style="fill:#707070"/><rect x="587.4" y="541.6" width="79.6" height="28.8" style="fill:#707070"/><path d="M398.3,645.6a4.1,4.1,0,0,0,4.1,4h76.2V620.8H398.3Z" style="fill:#707070"/><rect x="492.9" y="620.8" width="33.5" height="28.8" style="fill:#707070"/><rect x="398.3" y="581.2" width="33.5" height="28.8" style="fill:#707070"/><rect x="446.1" y="581.2" width="80.3" height="28.8" style="fill:#707070"/><path d="M667,581.2v64a3.8,3.8,0,0,1-3.7,4.4H543V581.2Z" style="fill:#707070"/><path d="M191,183.6V107.9a6,6,0,0,0-6-6H70.9a6,6,0,0,0-6,6v75.7H57c.7,5.4,4.4,9.6,8.9,9.6H189.4c4.5,0,8.2-4.2,8.9-9.6ZM71.8,108.8H184.2v74.8H71.8Z" style="fill:#707070"/><path d="M191,394.8V319.1a6,6,0,0,0-6-5.9H70.9a6,6,0,0,0-6,5.9v75.7H57c.7,5.4,4.4,9.6,8.9,9.6H189.4c4.5,0,8.2-4.2,8.9-9.6ZM71.8,320H184.2v74.8H71.8Z" style="fill:#707070"/><path d="M191,606.1V530.4a6,6,0,0,0-6-6H70.9a6,6,0,0,0-6,6v75.7H57c.7,5.4,4.4,9.5,8.9,9.5H189.4c4.5,0,8.2-4.1,8.9-9.5ZM71.8,531.2H184.2v74.9H71.8Z" style="fill:#707070"/><path d="M783.8,332.1V273.2a3.4,3.4,0,0,0-3.4-3.4H691.3a3.4,3.4,0,0,0-3.4,3.4v58.9h-6.7c.5,4.2,3.4,7.4,6.9,7.4h95c3.5,0,6.4-3.2,6.9-7.4ZM692,273.9h87.7v58.2H692Zm21.5,30.2h0a24.1,24.1,0,0,0,5.4,15.2h0a21.1,21.1,0,0,0,33.4,0h0a24.1,24.1,0,0,0,5.4-15.2h0v-.3c0-13.1-9.9-23.7-22.1-23.7s-22.1,10.6-22.1,23.7Zm42.6,0a22.7,22.7,0,0,1-4.8,13.9H719.9a22.5,22.5,0,0,1-4.8-13.9c.1-7.2,6.4-13,14.2-13h14c7.1.7,12.7,6.3,12.8,13Zm-12.7,15.5a2.6,2.6,0,0,1-2.3,1.6h-11a2.6,2.6,0,0,1-2.3-1.6Zm-7.8,6.3a19.6,19.6,0,0,1-14.4-6.3h5a4,4,0,0,0,3.9,3.1h11a4,4,0,0,0,3.9-3.1h5A19.6,19.6,0,0,1,735.6,325.9Zm0-44.2c8.7,0,16.1,5.8,19.1,14a2.7,2.7,0,0,0-.7-.8v-.2l-.9-.8v-.2l-1-.8-.3-.2-1-.7h-.2l-1.1-.6h-.1l-1.2-.5-.3-.2-1.3-.4h-.1l-1.2-.3h-.3l-1.3-.2H726l-1.2.3h-.2l-1.2.4h-.3l-1.2.6h-.1a6.7,6.7,0,0,0-1.2.6h-.1l-1.1.7v.2l-1.1.8h0l-.9,1h-.1l-.7.8C719.5,287.5,726.9,281.7,735.6,281.7Zm-9.5,15.8a7.9,7.9,0,1,0,7.9,7.9A7.9,7.9,0,0,0,726.1,297.5Zm0,11a3.2,3.2,0,0,1,0-6.3,3.2,3.2,0,1,1,0,6.3Zm-.8-9.4v1.6h-.8l-.5.2h-.1a1,1,0,0,0-.5.4h-.1a2.8,2.8,0,0,0-1,.9h0a1,1,0,0,0-.4.5h0c-.1.2-.2.3-.2.5h-.1c0,.2-.1.5-.1.7h-1.6A6.3,6.3,0,0,1,725.3,299.1Zm-5.5,7h1.6c.1.2.1.4.2.6h0a1.4,1.4,0,0,1,.2.6h.1l.3.5h.1a3.8,3.8,0,0,0,.9.9h.1l.6.3h.1l.5.2h.8v1.6A6.4,6.4,0,0,1,719.8,306.1Zm7.1,5.5V310h.8l.5-.2h.1l.6-.4h.1l.9-1h.1l.3-.5h0l.3-.5h0c.1-.2.1-.5.2-.7h1.5A6.2,6.2,0,0,1,726.9,311.6Zm3.9-7h0a1.4,1.4,0,0,0-.2-.6h0l-.3-.6h0l-.3-.5h-.1l-.9-.9h-.1l-.6-.3h-.1l-.5-.2h-.1l-.6-.2h-.1v-1.6a6.4,6.4,0,0,1,5.5,5.5Zm6.4.8a7.9,7.9,0,1,0,7.9-7.9A7.9,7.9,0,0,0,737.2,305.4Zm1.6.7h1.6c0,.2.1.4.1.6h.1a1.4,1.4,0,0,0,.2.6h0l.4.5h.1a2,2,0,0,0,.9.9h.1l.5.3h.1l.5.2h.8v1.6A6.4,6.4,0,0,1,738.8,306.1Zm6.3-3.9a3.2,3.2,0,1,1-3.2,3.2A3.1,3.1,0,0,1,745.1,302.2Zm.8,9.4V310h.8l.5-.2h.1l.5-.4h.1a2.8,2.8,0,0,0,.9-1h.1l.4-.5h0c.1-.2.2-.3.2-.5h.1c0-.3.1-.5.1-.7h1.6A6.3,6.3,0,0,1,745.9,311.6Zm5.4-7h-1.5c-.1-.2-.1-.4-.2-.6h-.1a1.4,1.4,0,0,0-.2-.6h0l-.4-.5h-.1a3.8,3.8,0,0,0-.9-.9h-.1l-.5-.3h-.1l-.5-.2h-.2l-.6-.2h0v-1.6A6.3,6.3,0,0,1,751.3,304.6Zm-7-5.5v1.6h-.8l-.5.2h-.1l-.6.4h-.1a3.8,3.8,0,0,0-.9.9h-.1l-.3.5h-.1c0,.2-.1.3-.2.5h0c-.1.2-.1.5-.2.7h-1.6A6.4,6.4,0,0,1,744.3,299.1Z" style="fill:#f16975"/><path d="M783.8,239.1V180.2a3.4,3.4,0,0,0-3.4-3.4H691.3a3.4,3.4,0,0,0-3.4,3.4v58.9h-6.7c.5,4.2,3.4,7.4,6.9,7.4h95c3.5,0,6.4-3.2,6.9-7.4ZM692,180.9h87.7v58.2H692Zm21.5,30.2h0a24.1,24.1,0,0,0,5.4,15.2h0a21.1,21.1,0,0,0,33.4,0h0a24.1,24.1,0,0,0,5.4-15.2h0v-.3c0-13.1-9.9-23.7-22.1-23.7s-22.1,10.6-22.1,23.7Zm42.6,0a22.7,22.7,0,0,1-4.8,13.9H719.9a22.5,22.5,0,0,1-4.8-13.9c.1-7.2,6.4-13,14.2-13h14c7.1.7,12.7,6.3,12.8,13Zm-12.7,15.5a2.6,2.6,0,0,1-2.3,1.6h-11a2.6,2.6,0,0,1-2.3-1.6Zm-7.8,6.3a19.6,19.6,0,0,1-14.4-6.3h5a4,4,0,0,0,3.9,3.1h11a4,4,0,0,0,3.9-3.1h5A19.6,19.6,0,0,1,735.6,232.9Zm0-44.2c8.7,0,16.1,5.8,19.1,14a2.7,2.7,0,0,0-.7-.8v-.2l-.9-.8v-.2l-1-.8-.3-.2-1-.7h-.2l-1.1-.6h-.1l-1.2-.5-.3-.2-1.3-.4h-.1l-1.2-.3h-.3l-1.3-.2H726l-1.2.3h-.2l-1.2.4h-.3l-1.2.6h-.1l-1.2.6h-.1l-1.1.7v.2l-1.1.8h0l-.9,1h-.1l-.7.8C719.5,194.5,726.9,188.7,735.6,188.7Zm-9.5,15.8a7.9,7.9,0,1,0,7.9,7.9A7.9,7.9,0,0,0,726.1,204.5Zm0,11a3.2,3.2,0,0,1,0-6.3,3.2,3.2,0,1,1,0,6.3Zm-.8-9.4v1.6h-.8l-.5.2h-.1a1,1,0,0,0-.5.4h-.1a2.8,2.8,0,0,0-1,.9h0a1,1,0,0,0-.4.5h0c-.1.2-.2.3-.2.5h-.1c0,.2-.1.5-.1.7h-1.6A6.3,6.3,0,0,1,725.3,206.1Zm-5.5,7h1.6l.2.6h0a1.4,1.4,0,0,1,.2.6h.1l.3.5h.1a3.8,3.8,0,0,0,.9.9h.1l.6.3h.1l.5.2h.8v1.6A6.4,6.4,0,0,1,719.8,213.1Zm7.1,5.5V217h.8l.5-.2h.1l.6-.4h.1l.9-1h.1l.3-.5h0l.3-.5h0c.1-.2.1-.5.2-.7h1.5A6.2,6.2,0,0,1,726.9,218.6Zm3.9-7h0a1.4,1.4,0,0,0-.2-.6h0l-.3-.6h0l-.3-.5h-.1l-.9-.9h-.1l-.6-.3h-.1l-.5-.2h-.1l-.6-.2h-.1v-1.6a6.4,6.4,0,0,1,5.5,5.5Zm6.4.8a7.9,7.9,0,1,0,7.9-7.9A7.9,7.9,0,0,0,737.2,212.4Zm1.6.7h1.6c0,.2.1.4.1.6h.1a1.4,1.4,0,0,0,.2.6h0l.4.5h.1a2,2,0,0,0,.9.9h.1l.5.3h.1l.5.2h.8v1.6A6.4,6.4,0,0,1,738.8,213.1Zm6.3-3.9a3.2,3.2,0,1,1-3.2,3.2A3.1,3.1,0,0,1,745.1,209.2Zm.8,9.4V217h.8l.5-.2h.1l.5-.4h.1a2.8,2.8,0,0,0,.9-1h.1l.4-.5h0c.1-.2.2-.3.2-.5h.1c0-.3.1-.5.1-.7h1.6A6.3,6.3,0,0,1,745.9,218.6Zm5.4-7h-1.5c-.1-.2-.1-.4-.2-.6h-.1a1.4,1.4,0,0,0-.2-.6h0l-.4-.5h-.1a3.8,3.8,0,0,0-.9-.9h-.1l-.5-.3h-.1l-.5-.2h-.2l-.6-.2h0v-1.6A6.3,6.3,0,0,1,751.3,211.6Zm-7-5.5v1.6h-.8l-.5.2h-.1l-.6.4h-.1a3.8,3.8,0,0,0-.9.9h-.1l-.3.5h-.1c0,.2-.1.3-.2.5h0c-.1.2-.1.5-.2.7h-1.6A6.4,6.4,0,0,1,744.3,206.1Z" style="fill:#f16975"/><path d="M786.6,452.8V393.9a3.4,3.4,0,0,0-3.4-3.4H694.1a3.5,3.5,0,0,0-3.4,3.4v58.9H684c.6,4.2,3.5,7.4,6.9,7.4H786c3.4,0,6.3-3.2,6.9-7.4Zm-91.7-58.1h87.6v58.1H694.9Zm21.4,30.2h0a25.1,25.1,0,0,0,5.4,15.1h0a21.2,21.2,0,0,0,33.5,0h0a25.1,25.1,0,0,0,5.4-15.1h0v-.4c0-13-10-23.7-22.2-23.7s-22.1,10.7-22.1,23.7Zm42.7,0a23.5,23.5,0,0,1-4.8,13.8H722.7a23.5,23.5,0,0,1-4.8-13.8c.1-7.2,6.5-13.1,14.2-13.1h14.1c7,.6,12.7,6.2,12.8,13Zm-12.8,15.4a2.2,2.2,0,0,1-2.2,1.6H732.9a2.2,2.2,0,0,1-2.2-1.6Zm-7.8,6.3a19.5,19.5,0,0,1-14.3-6.3H729a4,4,0,0,0,3.9,3.2H744a3.8,3.8,0,0,0,3.8-3.2h5A19.6,19.6,0,0,1,738.4,446.6Zm0-44.2c8.7,0,16.2,5.8,19.2,14a2.7,2.7,0,0,1-.7-.8h-.2l-.8-.9h-.1a3.9,3.9,0,0,0-1-.8l-.2-.2-1.1-.8h-.1l-1.1-.6h-.2l-1.2-.5h-.2l-1.3-.4h-.1a6.1,6.1,0,0,0-1.3-.3h-.2l-1.4-.2H730.5l-1.4.2h-.2l-1.3.4h-.1l-1.3.4H726l-1.2.5h-.2l-1.1.6h-.1l-1.1.8h-.2l-1,.9h0a4.7,4.7,0,0,0-1,1H720l-.6.7C722.3,408.2,729.8,402.4,738.4,402.4ZM729,418.2a7.9,7.9,0,1,0,7.9,7.9A7.9,7.9,0,0,0,729,418.2Zm0,11.1a3.2,3.2,0,1,1,3.1-3.2A3.2,3.2,0,0,1,729,429.3Zm-.8-9.5v1.6h-.1l-.6.2h-.1l-.5.2h-.1l-.6.3h-.1l-.9.9h-.1l-.3.6h-.1a1.4,1.4,0,0,1-.2.6h0c-.1.2-.1.4-.2.6h-1.6A6.4,6.4,0,0,1,728.2,419.8Zm-5.5,7.1h1.6c0,.3.1.5.1.7h.1a.8.8,0,0,0,.2.5h0l.4.6h.1a3.8,3.8,0,0,0,.9.9h.1l.5.3h.1l.5.3h.2l.6.2h0v1.5A6.3,6.3,0,0,1,722.7,426.9Zm7.1,5.5v-1.6h0l.6-.2h.2l.5-.2h.1l.5-.3h.1a3.8,3.8,0,0,0,.9-.9h.1l.4-.6h0a1.4,1.4,0,0,0,.2-.6h.1c0-.2.1-.4.1-.6h1.6A6.4,6.4,0,0,1,729.8,432.4Zm3.8-7.1h0a1.5,1.5,0,0,0-.1-.7h-.1c0-.2-.1-.3-.2-.5h0a1,1,0,0,0-.4-.5h-.1a2.8,2.8,0,0,0-.9-1h-.1a1,1,0,0,0-.5-.4h-.1l-.5-.3h-.8v-1.6a6.2,6.2,0,0,1,5.4,5.4Zm6.4.8a7.9,7.9,0,1,0,7.9-7.9A7.9,7.9,0,0,0,740,426.1Zm1.7.8h1.5a6.4,6.4,0,0,0,.2.7h0l.3.5h0l.3.6h.1l.9.9h.1l.6.3h.1l.5.3h.1l.6.2h.1v1.5A6.2,6.2,0,0,1,741.7,426.9Zm6.2-4a3.2,3.2,0,1,1-3.1,3.2A3.2,3.2,0,0,1,747.9,422.9Zm.8,9.5v-1.6h.1l.6-.2h.1l.5-.2h.1l.6-.3h.1l.9-.9h.1l.3-.6h.1a1.4,1.4,0,0,1,.2-.6h0c.1-.2.1-.4.2-.6h1.6A6.4,6.4,0,0,1,748.7,432.4Zm5.5-7.1h-1.6c0-.3-.1-.5-.1-.7h-.1c-.1-.2-.2-.3-.2-.5h-.1l-.3-.5h-.1l-.9-1h-.1l-.6-.4H750l-.5-.3h-.8v-1.6A6.3,6.3,0,0,1,754.2,425.3Zm-7.1-5.5v1.6h0l-.6.2h-.2l-.5.2h-.1l-.5.3h-.1a3.8,3.8,0,0,0-.9.9h-.1a2.1,2.1,0,0,0-.4.6h0a1.4,1.4,0,0,0-.2.6h-.1c0,.2-.1.4-.1.6h-1.6A6.4,6.4,0,0,1,747.1,419.8Z" style="fill:#f16975"/><path d="M786.6,554.4V495.5a3.4,3.4,0,0,0-3.4-3.4H694.1a3.4,3.4,0,0,0-3.4,3.4v58.9H684c.6,4.2,3.5,7.4,6.9,7.4H786c3.4,0,6.3-3.2,6.9-7.4Zm-91.7-58.1h87.6v58.1H694.9Zm21.4,30.2h0a25.1,25.1,0,0,0,5.4,15.1h0a21.2,21.2,0,0,0,33.5,0h0a25.1,25.1,0,0,0,5.4-15.1h0v-.4c0-13.1-10-23.7-22.2-23.7s-22.1,10.6-22.1,23.7Zm42.7,0a23.5,23.5,0,0,1-4.8,13.8H722.7a23.5,23.5,0,0,1-4.8-13.8c.1-7.2,6.5-13.1,14.2-13.1h14.1c7,.6,12.7,6.2,12.8,13Zm-12.8,15.4a2.2,2.2,0,0,1-2.2,1.6H732.9a2.2,2.2,0,0,1-2.2-1.6Zm-7.8,6.3a19.5,19.5,0,0,1-14.3-6.3H729a4.1,4.1,0,0,0,3.9,3.2H744a3.9,3.9,0,0,0,3.8-3.2h5A19.6,19.6,0,0,1,738.4,548.2Zm0-44.2c8.7,0,16.2,5.8,19.2,14l-.7-.8h-.2l-.8-.9h-.1a3.9,3.9,0,0,0-1-.8l-.2-.3-1.1-.7h-.1l-1.1-.6h-.2l-1.2-.5h-.2l-1.3-.5h-.1l-1.3-.3h-.2l-1.4-.2H730.5l-1.4.2h-.2l-1.3.3h-.1l-1.3.5H726l-1.2.5h-.2l-1.1.6h-.1l-1.1.8h-.2l-1,.9h0a4.7,4.7,0,0,0-1,1H720l-.6.8C722.3,509.8,729.8,504,738.4,504ZM729,519.8a7.9,7.9,0,0,0,0,15.8,7.9,7.9,0,0,0,0-15.8Zm0,11a3.2,3.2,0,1,1,3.1-3.1A3.1,3.1,0,0,1,729,530.8Zm-.8-9.4V523h-.1l-.6.2h-.1l-.5.2h-.1l-.6.3h-.1a7.6,7.6,0,0,0-.9.9h-.1l-.3.5h-.1a1.4,1.4,0,0,1-.2.6h0c-.1.2-.1.4-.2.6h-1.6A6.4,6.4,0,0,1,728.2,521.4Zm-5.5,7.1h1.6c0,.2.1.5.1.7h.1c0,.2.1.3.2.5h0l.4.5h.1a2.8,2.8,0,0,0,.9,1h.1l.5.4h.1l.5.3h.8v1.6A6.3,6.3,0,0,1,722.7,528.5Zm7.1,5.5v-1.6h0l.6-.2h.2l.5-.2h.1l.5-.3h.1a3.8,3.8,0,0,0,.9-.9h.1l.4-.6h0a.8.8,0,0,0,.2-.5h.1c0-.2.1-.4.1-.6h1.6A6.5,6.5,0,0,1,729.8,534Zm3.8-7.1h0a1.3,1.3,0,0,0-.1-.6h-.1a.8.8,0,0,0-.2-.5h0a2.1,2.1,0,0,0-.4-.6h-.1a3.8,3.8,0,0,0-.9-.9h-.1l-.5-.3h-.1l-.5-.3h-.2l-.6-.2h0v-1.5a6.1,6.1,0,0,1,5.4,5.4Zm6.4.8a7.9,7.9,0,1,0,15.8,0,7.9,7.9,0,1,0-15.8,0Zm1.7.8h1.5c.1.2.1.5.2.7h0l.3.5h0l.3.5h.1l.9,1h.1l.6.4h.1l.5.3h.8v1.6A6.2,6.2,0,0,1,741.7,528.5Zm6.2-4a3.2,3.2,0,1,1,0,6.3,3.2,3.2,0,0,1,0-6.3Zm.8,9.5v-1.6h.1l.6-.2h.1l.5-.2h.1l.6-.3h.1l.9-.9h.1l.3-.6h.1l.2-.5h0c.1-.2.1-.4.2-.6h1.6A6.4,6.4,0,0,1,748.7,534Zm5.5-7.1h-1.6c0-.2-.1-.4-.1-.6h-.1a1.7,1.7,0,0,1-.2-.5h-.1l-.3-.6h-.1l-.9-.9h-.1l-.6-.3H750l-.5-.3h-.1l-.6-.2h-.1v-1.5A6.2,6.2,0,0,1,754.2,526.9Zm-7.1-5.5V523h0l-.6.2h-.2l-.5.2h-.1l-.5.3h-.1a2.6,2.6,0,0,0-.9.9h-.1l-.4.5h0a1.4,1.4,0,0,0-.2.6h-.1c0,.2-.1.4-.1.6h-1.6A6.4,6.4,0,0,1,747.1,521.4Z" style="fill:#f16975"/><polyline points="190.5 143.8 289.5 143.8 289.5 586.8 190.5 586.8" style="fill:none;stroke:#72c594;stroke-miterlimit:10;stroke-width:5px"/><line x1="191" y1="361.3" x2="398" y2="361.3" style="fill:none;stroke:#72c594;stroke-miterlimit:10;stroke-width:5px"/><line x1="1242" y1="358.8" x2="666.5" y2="358.8" style="fill:none;stroke:#72c594;stroke-miterlimit:10;stroke-width:5px"/><line x1="785" y1="429.3" x2="1223" y2="380.3" style="fill:none;stroke:#f16975;stroke-miterlimit:10;stroke-width:5px"/><line x1="785" y1="528.3" x2="1232" y2="409.3" style="fill:none;stroke:#f16975;stroke-miterlimit:10;stroke-width:5px"/><line x1="782" y1="210.3" x2="1229" y2="313.3" style="fill:none;stroke:#f16975;stroke-miterlimit:10;stroke-width:5px"/><line x1="782" y1="307.3" x2="1223" y2="339.3" style="fill:none;stroke:#f16975;stroke-miterlimit:10;stroke-width:5px"/><path d="M1336.5,239.2c-65.9,0-119.5,53.7-119.5,119.6a119.6,119.6,0,1,0,119.5-119.6Zm93,174.8h-36a204.4,204.4,0,0,0,6.9-46.9h44A107.5,107.5,0,0,1,1429.5,414Zm-61,48.1c8.6-9,15.9-21.5,21.4-36.7h31.7A108.2,108.2,0,0,1,1368.5,462.1Zm-117-36.7h31.7c5.5,15.2,12.8,27.7,21.4,36.7A108.2,108.2,0,0,1,1251.5,425.4Zm-22.8-58.3h44a204.4,204.4,0,0,0,6.9,46.9h-36A107.5,107.5,0,0,1,1228.7,367.1Zm13.4-61h36.8a212,212,0,0,0-6.4,49.6h-44A108.1,108.1,0,0,1,1242.1,306.1Zm62.5-50.6c-9.1,9.5-16.7,22.9-22.3,39.2h-32.8A108,108,0,0,1,1304.6,255.5Zm119,39.2h-32.9c-5.5-16.3-13.1-29.7-22.2-39.2A108,108,0,0,1,1423.6,294.7Zm-34.4,61H1283.9a195.3,195.3,0,0,1,7-49.6h91.3A195.3,195.3,0,0,1,1389.2,355.7Zm-7.8,58.3h-89.7a182.6,182.6,0,0,1-7.6-46.9H1389A182.6,182.6,0,0,1,1381.4,414Zm-3.9,11.4c-9.8,24.7-24.6,40.7-41,40.7s-31.1-16-40.9-40.7Zm-82.9-130.7c9.7-26,25.1-43.3,41.9-43.3s32.3,17.3,42,43.3Zm105.9,61a207,207,0,0,0-6.3-49.6H1431a108.1,108.1,0,0,1,13.6,49.6Z" style="fill:#707070"/><path d="M32,709.2a7.3,7.3,0,1,1-.1,14.5H26.7v8.1H23.9V709.2Zm-5.3,12h4.5c3.2,0,5.1-1.7,5.1-4.7s-1.8-4.8-5.1-4.8H26.7Z"/><path d="M42,715.5h2.5v2.7h.1a4,4,0,0,1,3.9-3l1.1.2V718l-1.4-.2a3.5,3.5,0,0,0-3.5,3.8v10.2H42Z"/><path d="M51.6,710.9a1.8,1.8,0,0,1,1.7-1.7,1.7,1.7,0,0,1,1.7,1.7,1.6,1.6,0,0,1-1.7,1.7A1.7,1.7,0,0,1,51.6,710.9Zm.4,4.6h2.7v16.3H52Z"/><path d="M65.7,731.8H62.9L57,715.5h2.8l4.5,13.4h.1l4.5-13.4h2.8Z"/><path d="M72.8,727.2c0-2.8,2.2-4.6,5.9-4.8l4.7-.2v-1.4c0-2-1.3-3.2-3.6-3.2s-3.4,1-3.7,2.6H73.5c.1-2.8,2.5-5,6.4-5s6.2,2.1,6.2,5.3v11.3H83.5V729h0a6.2,6.2,0,0,1-5.2,3.1C75,732.1,72.8,730.1,72.8,727.2Zm10.6-1.6v-1.3l-4.4.2c-2.1.2-3.4,1.1-3.4,2.7s1.3,2.5,3.3,2.5A4.3,4.3,0,0,0,83.4,725.6Z"/><path d="M93.2,711.6v3.9h3.1v2.3H93.2v9.6c0,1.5.6,2.2,2,2.2h1.1v2.3H94.6c-3,0-4.2-1.2-4.2-4.3v-9.8H88v-2.3h2.4v-3.9Z"/><path d="M112.2,727.1c-.5,2.9-3.2,5-6.8,5s-7.5-3.3-7.5-8.4,2.9-8.5,7.4-8.5,7.1,3.2,7.1,8.2v1H100.7c0,3.1,1.9,5.2,4.8,5.2a3.9,3.9,0,0,0,4-2.6Zm-11.4-4.8h8.8c-.1-2.8-1.8-4.7-4.3-4.7S100.9,719.6,100.8,722.3Z"/><path d="M122.1,731.8V709.2h2.7l12.4,17.7h.1V709.2h2.8v22.6h-2.7L125,714.1h-.1v17.7Z"/><path d="M157.5,727.1c-.5,2.9-3.2,5-6.7,5s-7.5-3.3-7.5-8.4,2.8-8.5,7.3-8.5,7.1,3.2,7.1,8.2v1H146.1c0,3.1,1.8,5.2,4.7,5.2a3.9,3.9,0,0,0,4-2.6Zm-11.4-4.8h8.8c-.1-2.8-1.8-4.7-4.3-4.7S146.3,719.6,146.1,722.3Z"/><path d="M164,711.6v3.9h3.2v2.3H164v9.6c0,1.5.7,2.2,2.1,2.2h1.1v2.3h-1.7c-3,0-4.2-1.2-4.2-4.3v-9.8h-2.4v-2.3h2.4v-3.9Z"/><path d="M186.2,731.8h-2.7l-3.7-12.6h-.1l-3.6,12.6h-2.8l-4.5-16.3h2.7l3.2,13.2h.1l3.7-13.2h2.6l3.7,13.2h0l3.3-13.2h2.7Z"/><path d="M192.2,723.6c0-5.1,3-8.4,7.5-8.4s7.5,3.3,7.5,8.4-3,8.5-7.5,8.5S192.2,728.8,192.2,723.6Zm12.3,0c0-3.8-1.9-6-4.8-6s-4.7,2.2-4.7,6,1.8,6.1,4.7,6.1S204.5,727.5,204.5,723.6Z"/><path d="M210,715.5h2.5v2.7h.1a4,4,0,0,1,3.9-3l1.1.2V718l-1.4-.2a3.5,3.5,0,0,0-3.5,3.8v10.2H210Z"/><path d="M229.9,715.5h3.3l-7.1,7,7.3,9.3h-3.2l-6-7.6-1.5,1.4v6.2H220V709.2h2.7v13.5Z"/><path d="M484.6,731.8V709.2h13.7v2.6H487.4v7.7h10V722h-10v9.8Z"/><path d="M500.8,710.9a1.8,1.8,0,0,1,1.8-1.7,1.8,1.8,0,0,1,1.7,1.7,1.7,1.7,0,0,1-1.7,1.7A1.7,1.7,0,0,1,500.8,710.9Zm.4,4.6h2.7v16.3h-2.7Z"/><path d="M507.6,715.5h2.5v2.7h.1a4,4,0,0,1,3.9-3l1.1.2V718l-1.4-.2a3.5,3.5,0,0,0-3.5,3.8v10.2h-2.7Z"/><path d="M530.1,727.1c-.5,2.9-3.2,5-6.8,5s-7.4-3.3-7.4-8.4,2.8-8.5,7.3-8.5,7.1,3.2,7.1,8.2v1H518.7c0,3.1,1.8,5.2,4.7,5.2a3.9,3.9,0,0,0,4-2.6Zm-11.4-4.8h8.8c-.1-2.8-1.8-4.7-4.3-4.7S518.8,719.6,518.7,722.3Z"/><path d="M549.2,731.8h-2.8l-3.6-12.6h-.1L539,731.8h-2.7l-4.6-16.3h2.7l3.3,13.2h0l3.7-13.2H544l3.7,13.2h.1l3.2-13.2h2.7Z"/><path d="M555,727.2c0-2.8,2.1-4.6,5.9-4.8l4.6-.2v-1.4c0-2-1.3-3.2-3.5-3.2s-3.4,1-3.8,2.6h-2.6c.2-2.8,2.6-5,6.4-5s6.2,2.1,6.2,5.3v11.3h-2.5V729h-.1a6.1,6.1,0,0,1-5.2,3.1C557.1,732.1,555,730.1,555,727.2Zm10.5-1.6v-1.3l-4.3.2c-2.2.2-3.5,1.1-3.5,2.7s1.3,2.5,3.3,2.5A4.2,4.2,0,0,0,565.5,725.6Z"/><path d="M571.8,709.2h2.8v22.6h-2.8Z"/><path d="M578.4,709.2h2.7v22.6h-2.7Z"/><path d="M1263.9,731.8v-20h-7.2v-2.6h17.1v2.6h-7.1v20Z"/><path d="M1276.5,709.2h2.7v8.9h0a5.6,5.6,0,0,1,5.2-2.9c3.6,0,5.7,2.4,5.7,6.1v10.5h-2.7v-10c0-2.6-1.3-4.2-3.8-4.2s-4.4,1.9-4.4,4.7v9.5h-2.7Z"/><path d="M1307,727.1c-.4,2.9-3.2,5-6.7,5s-7.5-3.3-7.5-8.4,2.9-8.5,7.3-8.5,7.1,3.2,7.1,8.2v1h-11.6c0,3.1,1.8,5.2,4.7,5.2a4.1,4.1,0,0,0,4.1-2.6Zm-11.4-4.8h8.8c0-2.8-1.7-4.7-4.3-4.7S1295.8,719.6,1295.6,722.3Z"/><path d="M1317,731.8V709.2h2.8v22.6Z"/><path d="M1323.7,715.5h2.6v2.6h0a5.6,5.6,0,0,1,5.2-2.9c3.6,0,5.6,2.3,5.6,6v10.6h-2.7V721.7c0-2.6-1.2-4.1-3.7-4.1s-4.3,1.9-4.3,4.6v9.6h-2.7Z"/><path d="M1344.2,711.6v3.9h3.1v2.3h-3.1v9.6c0,1.5.6,2.2,2,2.2h1.1v2.3h-1.7c-3,0-4.1-1.2-4.1-4.3v-9.8H1339v-2.3h2.5v-3.9Z"/><path d="M1363.2,727.1c-.5,2.9-3.2,5-6.8,5s-7.4-3.3-7.4-8.4,2.8-8.5,7.3-8.5,7.1,3.2,7.1,8.2v1h-11.7c0,3.1,1.9,5.2,4.8,5.2a3.9,3.9,0,0,0,4-2.6Zm-11.4-4.8h8.8c-.1-2.8-1.8-4.7-4.3-4.7S1351.9,719.6,1351.8,722.3Z"/><path d="M1366.1,715.5h2.6v2.7h.1a4,4,0,0,1,3.9-3l1.1.2V718l-1.5-.2c-2.1,0-3.4,1.6-3.4,3.8v10.2h-2.8Z"/><path d="M1376,715.5h2.6v2.6h0a5.6,5.6,0,0,1,5.2-2.9c3.5,0,5.6,2.3,5.6,6v10.6h-2.7V721.7c0-2.6-1.2-4.1-3.7-4.1s-4.3,1.9-4.3,4.6v9.6H1376Z"/><path d="M1406.3,727.1c-.5,2.9-3.2,5-6.8,5s-7.4-3.3-7.4-8.4,2.8-8.5,7.3-8.5,7.1,3.2,7.1,8.2v1h-11.6c0,3.1,1.8,5.2,4.7,5.2a3.9,3.9,0,0,0,4-2.6Zm-11.4-4.8h8.8c-.1-2.8-1.8-4.7-4.3-4.7S1395,719.6,1394.9,722.3Z"/><path d="M1412.8,711.6v3.9h3.2v2.3h-3.2v9.6c0,1.5.7,2.2,2.1,2.2h1.1v2.3h-1.7c-3,0-4.2-1.2-4.2-4.3v-9.8h-2.4v-2.3h2.4v-3.9Z"/><path d="M689.8,725.3h-8.9l-2.3,6.5h-2.9l8.3-22.6h2.8l8.3,22.6h-3Zm-8.1-2.4H689l-3.6-10.3h-.1Z"/><path d="M700,711.6v3.9h3.2v2.3H700v9.6c0,1.5.7,2.2,2,2.2h1.2v2.3h-1.7c-3,0-4.2-1.2-4.2-4.3v-9.8h-2.4v-2.3h2.4v-3.9Z"/><path d="M709.7,711.6v3.9h3.1v2.3h-3.1v9.6c0,1.5.6,2.2,2,2.2h1.1v2.3h-1.7c-3,0-4.1-1.2-4.1-4.3v-9.8h-2.5v-2.3H707v-3.9Z"/><path d="M714.8,727.2c0-2.8,2.1-4.6,5.8-4.8l4.7-.2v-1.4c0-2-1.3-3.2-3.6-3.2s-3.4,1-3.7,2.6h-2.6c.1-2.8,2.6-5,6.4-5s6.2,2.1,6.2,5.3v11.3h-2.6V729h0a6.2,6.2,0,0,1-5.2,3.1C716.9,732.1,714.8,730.1,714.8,727.2Zm10.5-1.6v-1.3l-4.3.2c-2.2.2-3.5,1.1-3.5,2.7s1.3,2.5,3.3,2.5A4.3,4.3,0,0,0,725.3,725.6Z"/><path d="M742.3,720.9a4,4,0,0,0-4.1-3.3c-2.9,0-4.8,2.4-4.8,6s2,6.1,4.8,6.1a3.9,3.9,0,0,0,4.1-3.2H745c-.4,3.3-3.1,5.6-6.8,5.6s-7.5-3.2-7.5-8.5,3-8.4,7.4-8.4a6.6,6.6,0,0,1,6.9,5.7Z"/><path d="M757.5,715.5h3.3l-7,7,7.3,9.3h-3.2l-6-7.6-1.5,1.4v6.2h-2.8V709.2h2.8v13.5Z"/><path d="M775.7,727.1c-.5,2.9-3.2,5-6.8,5s-7.4-3.3-7.4-8.4,2.8-8.5,7.3-8.5,7.1,3.2,7.1,8.2v1H764.3c0,3.1,1.8,5.2,4.7,5.2a3.9,3.9,0,0,0,4-2.6Zm-11.4-4.8h8.8c-.1-2.8-1.8-4.7-4.3-4.7S764.4,719.6,764.3,722.3Z"/><path d="M778.6,715.5h2.6v2.7h.1a4,4,0,0,1,3.9-3l1.1.2V718l-1.5-.2c-2.1,0-3.4,1.6-3.4,3.8v10.2h-2.8Z"/><path d="M794.2,715.2c3.6,0,5.9,2.1,6,5h-2.6c-.2-1.7-1.4-2.7-3.4-2.7s-3.3.9-3.3,2.4.8,1.9,2.6,2.3l2.6.6c3.3.8,4.5,2.1,4.5,4.4s-2.7,4.9-6.3,4.9-6.2-2-6.5-5h2.7c.3,1.8,1.6,2.7,3.8,2.7s3.5-.9,3.5-2.4-.6-1.8-2.5-2.3l-2.5-.6c-3.1-.7-4.6-2.1-4.6-4.5S790.7,715.2,794.2,715.2Z"/></svg>